<svg xmlns="http://www.w3.org/2000/svg" xmlns:xlink="http://www.w3.org/1999/xlink" width="500" zoomAndPan="magnify" viewBox="100 100 200 200" height="500" preserveAspectRatio="xMidYMid meet" version="1.0"><defs><g/><clipPath id="b3b3edd21a"><path d="M 134.8125 126.511719 L 240.5625 126.511719 L 240.5625 218 L 134.8125 218 Z M 134.8125 126.511719 " clip-rule="nonzero"/></clipPath><clipPath id="f717c829f8"><rect x="0" width="173" y="0" height="56"/></clipPath></defs><g clip-path="url(#b3b3edd21a)"><path fill="#f84e5d" d="M 193.527344 134.878906 L 187.78125 140.628906 L 181.46875 134.316406 C 178.863281 131.707031 175.820312 129.691406 172.421875 128.3125 C 169.148438 126.984375 165.6875 126.3125 162.140625 126.3125 C 158.597656 126.3125 155.136719 126.984375 151.859375 128.3125 C 148.464844 129.691406 145.421875 131.707031 142.8125 134.316406 C 140.207031 136.921875 138.1875 139.964844 136.8125 143.359375 C 135.484375 146.636719 134.8125 150.09375 134.8125 153.640625 C 134.8125 156.738281 135.328125 159.765625 136.339844 162.664062 L 153.753906 145.253906 C 155.996094 143.011719 158.972656 141.777344 162.144531 141.777344 C 165.3125 141.777344 168.292969 143.011719 170.53125 145.253906 L 176.84375 151.566406 L 149.109375 179.296875 L 187.761719 217.945312 L 198.691406 207.015625 L 170.980469 179.296875 L 204.460938 145.816406 C 206.703125 143.574219 209.679688 142.339844 212.851562 142.339844 C 216.019531 142.339844 219 143.574219 221.242188 145.816406 C 223.480469 148.054688 224.714844 151.035156 224.714844 154.207031 C 224.714844 157.375 223.480469 160.355469 221.242188 162.59375 L 204.558594 179.277344 L 215.492188 190.214844 L 232.175781 173.53125 C 234.78125 170.921875 236.800781 167.878906 238.179688 164.484375 C 239.507812 161.210938 240.179688 157.75 240.179688 154.203125 C 240.179688 150.65625 239.507812 147.199219 238.179688 143.921875 C 236.800781 140.527344 234.78125 137.484375 232.175781 134.878906 C 229.570312 132.273438 226.527344 130.253906 223.128906 128.875 C 219.855469 127.546875 216.394531 126.875 212.847656 126.875 C 209.304688 126.875 205.84375 127.546875 202.566406 128.875 C 199.175781 130.253906 196.132812 132.273438 193.527344 134.878906 Z M 193.527344 134.878906 " fill-opacity="1" fill-rule="nonzero"/></g><g transform="matrix(1, 0, 0, 1, 101, 208)"><g clip-path="url(#f717c829f8)"><g fill="#f84e5d" fill-opacity="1"><g transform="translate(1.017672, 44.276103)"><g><path d="M 1.984375 0 C 1.503906 0 1.0625 -0.203125 0.65625 -0.609375 C 0.289062 -0.972656 0.109375 -1.484375 0.109375 -2.140625 L 0 -36.625 C 0 -37.132812 0.203125 -37.628906 0.609375 -38.109375 C 1.015625 -38.554688 1.4375 -38.78125 1.875 -38.78125 L 9.796875 -38.71875 L 23.1875 -38.78125 C 23.8125 -38.78125 24.328125 -38.59375 24.734375 -38.21875 C 25.128906 -37.820312 25.328125 -37.363281 25.328125 -36.84375 L 25.328125 -28.96875 C 25.328125 -28.53125 25.109375 -28.109375 24.671875 -27.703125 C 24.265625 -27.367188 23.769531 -27.164062 23.1875 -27.09375 L 12.78125 -26.609375 L 12.9375 -21.203125 L 19.328125 -21.15625 C 19.804688 -21.15625 20.191406 -21.023438 20.484375 -20.765625 C 20.773438 -20.472656 20.921875 -20.101562 20.921875 -19.65625 L 20.703125 -13.609375 C 20.703125 -13.273438 20.539062 -12.960938 20.21875 -12.671875 C 19.882812 -12.410156 19.515625 -12.242188 19.109375 -12.171875 L 13.21875 -11.84375 L 13.5 -2.265625 C 13.570312 -1.671875 13.382812 -1.15625 12.9375 -0.71875 C 12.570312 -0.28125 12.113281 -0.0625 11.5625 -0.0625 Z M 1.984375 0 "/></g></g></g><g fill="#f84e5d" fill-opacity="1"><g transform="translate(28.556134, 44.276103)"><g><path d="M 10.359375 0.5 L 2.203125 0.546875 C 1.617188 0.546875 1.125 0.347656 0.71875 -0.046875 C 0.3125 -0.453125 0.109375 -0.96875 0.109375 -1.59375 L 0 -36.46875 C 0 -37.007812 0.207031 -37.5 0.625 -37.9375 C 1.050781 -38.382812 1.539062 -38.609375 2.09375 -38.609375 L 9.6875 -38.609375 C 10.28125 -38.609375 10.785156 -38.394531 11.203125 -37.96875 C 11.628906 -37.550781 11.84375 -37.050781 11.84375 -36.46875 L 12.5 -1.703125 C 12.539062 -1.078125 12.332031 -0.550781 11.875 -0.125 C 11.414062 0.289062 10.910156 0.5 10.359375 0.5 Z M 10.359375 0.5 "/></g></g></g><g fill="#f84e5d" fill-opacity="1"><g transform="translate(43.261673, 44.276103)"><g><path d="M 2.09375 0.390625 C 1.539062 0.390625 1.070312 0.234375 0.6875 -0.078125 C 0.300781 -0.390625 0.109375 -0.804688 0.109375 -1.328125 L 0 -28.75 C 0 -29.1875 0.203125 -29.578125 0.609375 -29.921875 C 1.015625 -30.273438 1.472656 -30.453125 1.984375 -30.453125 L 9.140625 -30.453125 C 9.691406 -30.453125 10.171875 -30.296875 10.578125 -29.984375 C 10.984375 -29.671875 11.1875 -29.257812 11.1875 -28.75 L 11.78125 -1.375 C 11.851562 -0.863281 11.640625 -0.453125 11.140625 -0.140625 C 10.648438 0.171875 10.1875 0.328125 9.75 0.328125 Z M 0.765625 -35.53125 C 0.296875 -36.738281 0.253906 -37.847656 0.640625 -38.859375 C 1.023438 -39.867188 1.691406 -40.6875 2.640625 -41.3125 C 3.597656 -41.9375 4.679688 -42.25 5.890625 -42.25 C 7.328125 -42.25 8.585938 -41.785156 9.671875 -40.859375 C 10.753906 -39.941406 11.296875 -38.785156 11.296875 -37.390625 C 11.296875 -36.328125 10.984375 -35.390625 10.359375 -34.578125 C 9.734375 -33.773438 8.960938 -33.226562 8.046875 -32.9375 C 6.578125 -32.382812 5.132812 -32.382812 3.71875 -32.9375 C 2.300781 -33.488281 1.316406 -34.351562 0.765625 -35.53125 Z M 0.765625 -35.53125 "/></g></g></g><g fill="#f84e5d" fill-opacity="1"><g transform="translate(57.25121, 44.276103)"><g><path d="M 1.984375 0.109375 C 1.503906 0.109375 1.0625 -0.09375 0.65625 -0.5 C 0.289062 -0.863281 0.109375 -1.375 0.109375 -2.03125 L 0 -27.875 C 0 -28.382812 0.203125 -28.878906 0.609375 -29.359375 C 1.015625 -29.796875 1.4375 -30.015625 1.875 -30.015625 L 9.203125 -29.96875 C 9.710938 -29.96875 10.171875 -29.765625 10.578125 -29.359375 C 10.941406 -28.953125 11.125 -28.4375 11.125 -27.8125 C 11.75 -28.507812 12.5 -29.097656 13.375 -29.578125 C 14.257812 -30.054688 15.347656 -30.296875 16.640625 -30.296875 C 18.472656 -30.296875 20.085938 -29.898438 21.484375 -29.109375 C 22.878906 -28.316406 24.21875 -27.316406 25.5 -26.109375 C 25.90625 -25.742188 26.113281 -25.3125 26.125 -24.8125 C 26.144531 -24.3125 26.007812 -23.84375 25.71875 -23.40625 L 22.578125 -18.390625 C 22.285156 -17.921875 21.835938 -17.628906 21.234375 -17.515625 C 20.628906 -17.398438 20.050781 -17.492188 19.5 -17.796875 C 18.976562 -18.085938 18.476562 -18.296875 18 -18.421875 C 17.53125 -18.546875 17 -18.609375 16.40625 -18.609375 C 14.570312 -18.609375 13.316406 -18.25 12.640625 -17.53125 C 11.960938 -16.820312 11.566406 -15.953125 11.453125 -14.921875 L 11.734375 -2.140625 C 11.804688 -1.554688 11.625 -1.046875 11.1875 -0.609375 C 10.8125 -0.160156 10.347656 0.0625 9.796875 0.0625 Z M 1.984375 0.109375 "/></g></g></g><g fill="#f84e5d" fill-opacity="1"><g transform="translate(85.560757, 44.276103)"><g><path d="M 5.5625 0.390625 C 5.125 0.390625 4.757812 0.1875 4.46875 -0.21875 C 4.132812 -0.625 3.96875 -1.15625 3.96875 -1.8125 L 3.90625 -20.59375 L 1.921875 -20.546875 C 1.148438 -20.503906 0.632812 -20.640625 0.375 -20.953125 C 0.125 -21.265625 0 -21.644531 0 -22.09375 L 0 -27.703125 C 0 -28.210938 0.15625 -28.632812 0.46875 -28.96875 C 0.78125 -29.300781 1.265625 -29.46875 1.921875 -29.46875 L 3.859375 -29.46875 L 3.859375 -37.125 C 3.859375 -37.675781 4.019531 -38.191406 4.34375 -38.671875 C 4.675781 -39.109375 5.0625 -39.328125 5.5 -39.328125 L 13.28125 -39.328125 C 13.75 -39.328125 14.148438 -39.109375 14.484375 -38.671875 C 14.816406 -38.222656 14.984375 -37.707031 14.984375 -37.125 L 15.09375 -29.625 L 16.796875 -29.625 C 17.640625 -29.625 18.191406 -29.457031 18.453125 -29.125 C 18.710938 -28.800781 18.84375 -28.421875 18.84375 -27.984375 L 18.953125 -22.421875 C 18.953125 -21.972656 18.867188 -21.601562 18.703125 -21.3125 C 18.535156 -21.019531 18.066406 -20.851562 17.296875 -20.8125 L 15.203125 -20.765625 L 15.484375 -1.921875 C 15.554688 -1.296875 15.390625 -0.765625 14.984375 -0.328125 C 14.617188 0.109375 14.234375 0.328125 13.828125 0.328125 Z M 5.5625 0.390625 "/></g></g></g><g fill="#f84e5d" fill-opacity="1"><g transform="translate(106.710299, 44.276103)"><g><path d="M 16.46875 -14.984375 L 2.140625 -14.984375 C 1.523438 -14.984375 1.015625 -15.191406 0.609375 -15.609375 C 0.203125 -16.035156 0 -16.5625 0 -17.1875 L 0.0625 -20.703125 C 0.09375 -21.296875 0.3125 -21.789062 0.71875 -22.1875 C 1.125 -22.59375 1.617188 -22.796875 2.203125 -22.796875 L 16.515625 -22.90625 C 17.140625 -22.90625 17.660156 -22.691406 18.078125 -22.265625 C 18.503906 -21.847656 18.703125 -21.328125 18.671875 -20.703125 L 18.609375 -17.078125 C 18.609375 -16.484375 18.394531 -15.984375 17.96875 -15.578125 C 17.550781 -15.179688 17.050781 -14.984375 16.46875 -14.984375 Z M 16.46875 -14.984375 "/></g></g></g><g fill="#f84e5d" fill-opacity="1"><g transform="translate(127.584462, 44.276103)"><g><path d="M 2.09375 0.390625 C 1.539062 0.390625 1.070312 0.234375 0.6875 -0.078125 C 0.300781 -0.390625 0.109375 -0.804688 0.109375 -1.328125 L 0 -28.75 C 0 -29.1875 0.203125 -29.578125 0.609375 -29.921875 C 1.015625 -30.273438 1.472656 -30.453125 1.984375 -30.453125 L 9.140625 -30.453125 C 9.691406 -30.453125 10.171875 -30.296875 10.578125 -29.984375 C 10.984375 -29.671875 11.1875 -29.257812 11.1875 -28.75 L 11.78125 -1.375 C 11.851562 -0.863281 11.640625 -0.453125 11.140625 -0.140625 C 10.648438 0.171875 10.1875 0.328125 9.75 0.328125 Z M 0.765625 -35.53125 C 0.296875 -36.738281 0.253906 -37.847656 0.640625 -38.859375 C 1.023438 -39.867188 1.691406 -40.6875 2.640625 -41.3125 C 3.597656 -41.9375 4.679688 -42.25 5.890625 -42.25 C 7.328125 -42.25 8.585938 -41.785156 9.671875 -40.859375 C 10.753906 -39.941406 11.296875 -38.785156 11.296875 -37.390625 C 11.296875 -36.328125 10.984375 -35.390625 10.359375 -34.578125 C 9.734375 -33.773438 8.960938 -33.226562 8.046875 -32.9375 C 6.578125 -32.382812 5.132812 -32.382812 3.71875 -32.9375 C 2.300781 -33.488281 1.316406 -34.351562 0.765625 -35.53125 Z M 0.765625 -35.53125 "/></g></g></g><g fill="#f84e5d" fill-opacity="1"><g transform="translate(141.573998, 44.276103)"><g><path d="M 8.8125 0 C 8.226562 0 7.734375 -0.203125 7.328125 -0.609375 C 6.921875 -1.015625 6.71875 -1.523438 6.71875 -2.140625 L 7 -25.453125 L 2.203125 -25.453125 C 1.617188 -25.410156 1.101562 -25.597656 0.65625 -26.015625 C 0.21875 -26.441406 0 -26.96875 0 -27.59375 L 0.109375 -36.90625 C 0.179688 -37.53125 0.410156 -38.039062 0.796875 -38.4375 C 1.179688 -38.84375 1.671875 -39.046875 2.265625 -39.046875 L 26.046875 -39.21875 C 26.671875 -39.21875 27.191406 -38.992188 27.609375 -38.546875 C 28.035156 -38.109375 28.234375 -37.578125 28.203125 -36.953125 L 27.921875 -27.53125 C 27.816406 -26.289062 27.140625 -25.613281 25.890625 -25.5 L 21.421875 -25.5 L 21.53125 -2.265625 C 21.601562 -1.640625 21.398438 -1.125 20.921875 -0.71875 C 20.453125 -0.28125 19.941406 -0.0625 19.390625 -0.0625 Z M 8.8125 0 "/></g></g></g></g></g></svg>